

<svg fill="none" height="19" viewBox="0 0 199 19" width="199" xmlns="http://www.w3.org/2000/svg"><g fill="#fff"><path d="m5.37959 15.0778c-3.3371 0-5.172608-2.0621-5.37959-4.292h1.85503c.22456 1.7808 1.40592 2.7923 3.44841 2.7923 1.63047 0 3.13012-.7498 3.13012-2.1557 0-1.74374-2.02492-2.08155-3.91705-2.53066-2.19284-.52527-4.235326-1.33172-4.235326-3.86237 0-2.04249 1.874556-3.82332 4.610236-3.82332 2.73569 0 4.7606 1.7242 5.07889 4.1045h-1.79841c-.15035-1.42349-1.34929-2.60485-3.20627-2.60485-1.48012 0-2.9993.78692-2.9993 2.24947 0 1.93118 2.00539 2.09911 4.04788 2.58728 2.06201.48816 4.10449 1.23603 4.10449 3.74905 0 2.1558-1.78082 3.7863-4.74301 3.7863z"/><path d="m21.0691 14.8902h-1.4626c-.0566-.3749-.0937-.9939-.0937-1.4059h-.0371c-.7869 1.1247-2.062 1.5934-3.3371 1.5934-2.681 0-4.5165-2.0249-4.5165-5.0613s1.8374-5.06132 4.5165-5.06132c1.2751 0 2.5306.56237 3.3176 1.68711h.0371v-1.49965h1.4996v8.09766c0 .6366.0195 1.3122.0742 1.65zm-1.5368-4.8738c0-2.08155-1.3317-3.63587-3.1672-3.63587s-3.1672 1.55627-3.1672 3.63587 1.3317 3.6358 3.1672 3.6358 3.1672-1.5562 3.1672-3.6358z"/><path d="m37.3405 8.47964v6.41056h-1.4996v-6.2973c0-1.55628-.8807-2.24947-2.062-2.24947-1.4626 0-2.5112 1.29266-2.5112 2.96219v5.58658h-1.4996v-6.29735c0-1.55627-.8807-2.24947-2.062-2.24947-1.4626 0-2.5111 1.33172-2.5111 2.9993v5.54752h-1.4997v-9.74966h1.4997v1.27509h.0371c.7693-1.03101 1.6304-1.46255 2.7747-1.46255 1.2556 0 2.2299.6561 2.7923 1.68711.7498-1.08764 1.9878-1.68711 3.2805-1.68711 1.9312 0 3.2609 1.46255 3.2609 3.52456z"/><path d="m48.7566 14.8902h-1.4626c-.0566-.3749-.0937-.9939-.0937-1.4059h-.0371c-.7869 1.1247-2.062 1.5934-3.3371 1.5934-2.681 0-4.5165-2.0249-4.5165-5.0613s1.8374-5.06132 4.5165-5.06132c1.2751 0 2.5306.56237 3.3176 1.68711h.0371v-1.49965h1.4996v8.09766c0 .6366.0195 1.3122.0742 1.65zm-1.5368-4.8738c0-2.08155-1.3317-3.63587-3.1672-3.63587s-3.1672 1.55627-3.1672 3.63587 1.3317 3.6358 3.1672 3.6358 3.1672-1.5562 3.1672-3.6358z"/><path d="m52.8805 5.14255v1.3864h.0371c.4315-.93728 1.443-1.49965 2.6049-1.49965.244 0 .4686.01953.6561.05663v1.46254c-.1875-.0371-.3945-.05662-.5819-.05662-1.9488 0-2.7181 1.12473-2.7181 2.88604v5.51041h-1.4997v-9.74575h1.4997z"/><path d="m66.9392 14.8902h-1.4626c-.0566-.3749-.0937-.9939-.0937-1.4059h-.0371c-.7869 1.1247-2.062 1.5934-3.3371 1.5934-2.681 0-4.5165-2.0249-4.5165-5.0613s1.8374-5.06132 4.5165-5.06132c1.2751 0 2.5307.56237 3.3176 1.68711h.0371v-1.49965h1.4996v8.09766c0 .6366.0196 1.3122.0742 1.65zm-1.5368-4.8738c0-2.08155-1.3317-3.63587-3.1672-3.63587s-3.1672 1.55627-3.1672 3.63587 1.3317 3.6358 3.1672 3.6358 3.1672-1.5562 3.1672-3.6358z"/><path d="m73.125 5.14254h1.8746v-.93728c0-2.55018 1.3688-3.374205 3.1496-3.374205.3749 0 .7869.074201 1.0681.187455v1.42545c-.2616-.11326-.619-.18746-.9177-.18746-1.0115 0-1.7984.31828-1.7984 1.79841v1.08763h2.7181v1.3493h-2.7181v8.39646h-1.4997v-8.39646h-1.8745v-1.3493z"/><path d="m80.0615 10.0164c0-2.81185 2.0816-5.06132 4.9305-5.06132s4.9305 2.24947 4.9305 5.06132c0 2.8118-2.0816 5.0613-4.9305 5.0613s-4.9305-2.2495-4.9305-5.0613zm8.2852 0c0-2.02492-1.2927-3.67297-3.3547-3.67297s-3.3547 1.65-3.3547 3.67297c0 2.0229 1.2927 3.6729 3.3547 3.6729s3.3547-1.65 3.3547-3.6729z"/><path d="m93.484 5.14255v1.3864h.0371c.4316-.93728 1.443-1.49965 2.6049-1.49965.2441 0 .4686.01953.6561.05663v1.46254c-.1875-.0371-.3945-.05662-.5819-.05662-1.9488 0-2.7181 1.12473-2.7181 2.88604v5.51041h-1.4997v-9.74575h1.4997z"/><path d="m114.028 8.14196c0 3.72964-2.457 6.74844-6.485 6.74844h-4.386v-13.49685h4.386c4.03 0 6.485 3.01882 6.485 6.74841zm-1.65 0c0-2.90557-1.724-5.24877-4.931-5.24877h-2.681v10.49761h2.681c3.207 0 4.931-2.3432 4.931-5.24884z"/><path d="m123.268 11.8519 1.574.2245c-.469 1.818-2.062 2.9993-4.255 2.9993-2.906 0-4.78-2.2124-4.78-5.0613 0-2.84894 1.894-5.09841 4.723-5.06131 3.074.0371 4.649 2.269 4.649 5.53001h-7.779c.187 1.7066 1.218 3.2062 3.187 3.2062 1.519 0 2.38-.9373 2.681-1.8374zm-5.792-2.68105h5.999c-.168-1.19894-1.125-2.82941-3-2.82941-1.874 0-2.831 1.63047-2.999 2.82941z"/><path d="m127.73 5.14258 2.962 8.06062h.037l3.037-8.06062h1.724l-3.974 9.74772h-1.687l-3.899-9.74772h1.798z"/><path d="m143.513 11.8519 1.574.2245c-.469 1.818-2.062 2.9993-4.255 2.9993-2.906 0-4.78-2.2124-4.78-5.0613 0-2.84894 1.894-5.09841 4.723-5.06131 3.074.0371 4.65 2.269 4.65 5.53001h-7.78c.188 1.7066 1.219 3.2062 3.187 3.2062 1.519 0 2.38-.9373 2.681-1.8374zm-5.792-2.68105h5.999c-.168-1.19894-1.125-2.82941-2.999-2.82941-1.875 0-2.832 1.63047-3 2.82941z"/><path d="m148.988 1.01855v13.87175h-1.5v-13.87175z"/><path d="m150.863 10.0164c0-2.81185 2.082-5.06132 4.931-5.06132s4.93 2.24947 4.93 5.06132c0 2.8118-2.081 5.0613-4.93 5.0613s-4.931-2.2495-4.931-5.0613zm8.285 0c0-2.02492-1.292-3.67297-3.354-3.67297s-3.355 1.65-3.355 3.67297c0 2.0229 1.293 3.6729 3.355 3.6729s3.354-1.65 3.354-3.6729z"/><path d="m164.321 13.3906h-.037v4.9676h-1.5v-13.21566h1.5v1.49964h.037c.787-1.12473 2.005-1.6871 3.28-1.6871 2.681 0 4.48 2.02491 4.48 5.06132 0 3.0364-1.799 5.0613-4.48 5.0613-1.275 0-2.493-.5624-3.28-1.6871zm-.074-3.3742c0 1.9487 1.05 3.6358 3.13 3.6358 1.874 0 3.13-1.4625 3.13-3.6358 0-2.17333-1.256-3.63587-3.13-3.63587-2.082 0-3.13 1.66757-3.13 3.63587z"/><path d="m181.229 11.8519 1.574.2245c-.469 1.818-2.062 2.9993-4.255 2.9993-2.906 0-4.78-2.2124-4.78-5.0613 0-2.84894 1.894-5.09841 4.723-5.06131 3.074.0371 4.649 2.269 4.649 5.53001h-7.779c.187 1.7066 1.218 3.2062 3.187 3.2062 1.519 0 2.38-.9373 2.681-1.8374zm-5.792-2.68105h5.999c-.168-1.19894-1.125-2.82941-3-2.82941-1.874 0-2.831 1.63047-2.999 2.82941z"/><path d="m186.702 5.14255v1.3864h.037c.431-.93728 1.443-1.49965 2.605-1.49965.244 0 .468.01953.656.05663v1.46254c-.188-.0371-.395-.05662-.582-.05662-1.949 0-2.718 1.12473-2.718 2.88604v5.51041h-1.5v-9.74575h1.5z"/><path d="m195.382 15.0777c-2.4 0-3.954-1.1247-4.068-3.1301h1.688c.093 1.1813.9 1.855 2.323 1.855 1.182 0 2.136-.4882 2.136-1.4254 0-1.1248-1.292-1.3864-2.681-1.7243-1.593-.3944-3.298-.88059-3.298-2.84888 0-1.66758 1.537-2.84894 3.543-2.84894 2.005 0 3.712 1.08764 3.86 2.9993h-1.613c-.057-.99391-.863-1.72421-2.212-1.72421-1.145 0-2.043.59947-2.043 1.48012 0 1.25557 1.48 1.36882 2.962 1.74374 1.5.35538 3.019.86307 3.019 2.83137 0 1.7242-1.537 2.7923-3.618 2.7923z"/></g></svg>