<svg width="14" height="14" viewBox="0 0 14 14" fill="none" xmlns="http://www.w3.org/2000/svg">
<path d="M2.15332 14C1.44043 14 0.90332 13.8193 0.541992 13.458C0.180664 13.1016 0 12.5693 0 11.8613V2.88184C0 2.17383 0.180664 1.6416 0.541992 1.28516C0.90332 0.923828 1.44043 0.743164 2.15332 0.743164H11.0962C11.814 0.743164 12.3535 0.923828 12.7148 1.28516C13.0762 1.6416 13.2568 2.17383 13.2568 2.88184V11.8613C13.2568 12.5645 13.0762 13.0967 12.7148 13.458C12.3535 13.8193 11.814 14 11.0962 14H2.15332ZM2.17529 13.0991H11.0815C11.4868 13.0991 11.7993 12.9917 12.019 12.7769C12.2437 12.562 12.356 12.2422 12.356 11.8174V2.92578C12.356 2.50098 12.2437 2.18115 12.019 1.96631C11.7993 1.75146 11.4868 1.64404 11.0815 1.64404H2.17529C1.76025 1.64404 1.44287 1.75146 1.22314 1.96631C1.0083 2.18115 0.900879 2.50098 0.900879 2.92578V11.8174C0.900879 12.2422 1.0083 12.562 1.22314 12.7769C1.44287 12.9917 1.76025 13.0991 2.17529 13.0991ZM9.02344 9.12207C8.89648 9.12207 8.79395 9.08301 8.71582 9.00488C8.6377 8.92188 8.59863 8.81201 8.59863 8.67529V7.06396L8.67188 5.85547L7.75635 6.83691L4.57764 10.0083C4.48975 10.0962 4.38232 10.1401 4.25537 10.1401C4.12842 10.1401 4.02588 10.1011 3.94775 10.0229C3.87451 9.94482 3.83789 9.84229 3.83789 9.71533C3.83789 9.60303 3.88428 9.50049 3.97705 9.40771L7.15576 6.23633L8.13721 5.29883L7.08252 5.37939H5.30273C5.1709 5.37939 5.06348 5.34277 4.98047 5.26953C4.89746 5.19141 4.85596 5.08887 4.85596 4.96191C4.85596 4.83984 4.89502 4.74219 4.97314 4.66895C5.05615 4.59082 5.16357 4.55176 5.29541 4.55176H8.97217C9.11377 4.55176 9.22607 4.58838 9.30908 4.66162C9.39209 4.73486 9.43359 4.85205 9.43359 5.01318V8.66797C9.43359 8.7998 9.39453 8.90967 9.31641 8.99756C9.24316 9.08057 9.14551 9.12207 9.02344 9.12207Z" fill="black" fill-opacity="0.4" />
</svg>
