

<svg width="15" height="19" viewBox="0 0 15 19" fill="none" xmlns="http://www.w3.org/2000/svg">
<path d="M4.05859 4.74512V3.10449C4.05859 2.39355 4.23405 1.85807 4.58496 1.49805C4.94043 1.13802 5.47135 0.958008 6.17773 0.958008H8.7959C9.16504 0.958008 9.49544 1.01042 9.78711 1.11523C10.0788 1.21549 10.3454 1.39095 10.5869 1.6416L14.0391 5.14844C14.2943 5.41276 14.472 5.69076 14.5723 5.98242C14.6725 6.27409 14.7227 6.62956 14.7227 7.04883V12.5996C14.7227 13.3105 14.5449 13.846 14.1895 14.2061C13.8385 14.5661 13.3099 14.7461 12.6035 14.7461H11.1953V13.6455H12.542C12.8975 13.6455 13.1663 13.5544 13.3486 13.3721C13.5309 13.1852 13.6221 12.9209 13.6221 12.5791V6.73438H10.4229C10.0309 6.73438 9.73698 6.63867 9.54102 6.44727C9.34961 6.25586 9.25391 5.96191 9.25391 5.56543V2.05859H6.23242C5.87695 2.05859 5.60807 2.15202 5.42578 2.33887C5.24805 2.52116 5.15918 2.7832 5.15918 3.125V4.74512H4.05859ZM10.2451 5.40137C10.2451 5.52441 10.2702 5.61328 10.3203 5.66797C10.375 5.7181 10.4616 5.74316 10.5801 5.74316H13.335L10.2451 2.59863V5.40137ZM0.743164 16.0107V6.51562C0.743164 5.80469 0.91862 5.26921 1.26953 4.90918C1.625 4.54915 2.15592 4.36914 2.8623 4.36914H5.27539C5.6582 4.36914 5.97493 4.41016 6.22559 4.49219C6.47624 4.57422 6.73145 4.74967 6.99121 5.01855L10.7578 8.85352C10.9401 9.04036 11.0768 9.2181 11.168 9.38672C11.2637 9.55078 11.3275 9.73307 11.3594 9.93359C11.3913 10.1341 11.4072 10.3802 11.4072 10.6719V16.0107C11.4072 16.7217 11.2295 17.2572 10.874 17.6172C10.5231 17.9772 9.99447 18.1572 9.28809 18.1572H2.8623C2.15592 18.1572 1.625 17.9772 1.26953 17.6172C0.91862 17.2617 0.743164 16.7262 0.743164 16.0107ZM1.84375 15.9902C1.84375 16.332 1.93262 16.5941 2.11035 16.7764C2.29264 16.9632 2.55924 17.0566 2.91016 17.0566H9.2334C9.58431 17.0566 9.85091 16.9632 10.0332 16.7764C10.2155 16.5941 10.3066 16.332 10.3066 15.9902V10.7266H6.44434C6.02051 10.7266 5.69922 10.6195 5.48047 10.4053C5.26628 10.1911 5.15918 9.86751 5.15918 9.43457V5.46973H2.91699C2.56152 5.46973 2.29264 5.56315 2.11035 5.75C1.93262 5.93229 1.84375 6.19206 1.84375 6.5293V15.9902ZM6.57422 9.69434H10.0947L6.19141 5.72266V9.31152C6.19141 9.44824 6.22103 9.54622 6.28027 9.60547C6.33952 9.66471 6.4375 9.69434 6.57422 9.69434Z" fill="#0096F7"/>
</svg>
