
<svg width="18" height="18" viewBox="0 0 18 18" fill="none" xmlns="http://www.w3.org/2000/svg">
<path d="M17.0312 9.03135C17.0312 4.31972 13.2256 0.500122 8.53125 0.500122C3.83687 0.500122 0.03125 4.31972 0.03125 9.03135C0.03125 13.0321 2.77573 16.3894 6.47799 17.3114V11.6385H4.72529V9.03135H6.47799V7.90795C6.47799 5.00427 7.78733 3.65838 10.6277 3.65838C11.1662 3.65838 12.0955 3.76451 12.4756 3.8703V6.23345C12.275 6.21229 11.9265 6.20171 11.4937 6.20171C10.1 6.20171 9.56145 6.73167 9.56145 8.10929V9.03135H12.3379L11.8609 11.6385H9.56145V17.5001C13.7703 16.99 17.0316 13.3932 17.0316 9.03135H17.0312Z" fill="#0096F7" />
</svg>
