
<svg width="18" height="17" viewBox="0 0 18 17" fill="none" xmlns="http://www.w3.org/2000/svg">
<path d="M9.72266 5.11929C10.1758 5.20262 10.5612 5.32762 10.8789 5.49429C11.2018 5.66095 11.4779 5.86147 11.707 6.09585C12.3529 6.73647 12.7826 7.44481 12.9961 8.22085C13.2096 8.99689 13.207 9.77293 12.9883 10.549C12.7747 11.3198 12.3503 12.0255 11.7148 12.6662L8.99609 15.3849C8.36068 16.0203 7.65495 16.4448 6.87891 16.6583C6.10807 16.8771 5.33464 16.8797 4.55859 16.6662C3.78255 16.4526 3.06901 16.0203 2.41797 15.3693C1.77734 14.7287 1.34766 14.0203 1.12891 13.2443C0.915365 12.4682 0.915365 11.6948 1.12891 10.924C1.34766 10.1479 1.77474 9.4396 2.41016 8.79897L4.66016 6.5646C4.58724 6.87189 4.56901 7.1922 4.60547 7.52554C4.64193 7.85366 4.72266 8.15835 4.84766 8.4396L3.51172 9.77554C3.07422 10.213 2.78255 10.6974 2.63672 11.2287C2.49089 11.7599 2.49089 12.2912 2.63672 12.8224C2.78255 13.3537 3.07682 13.8406 3.51953 14.2833C3.95703 14.7261 4.44141 15.0177 4.97266 15.1583C5.50391 15.3042 6.03516 15.3042 6.56641 15.1583C7.09766 15.0125 7.58203 14.7208 8.01953 14.2833L10.6211 11.6896C11.0586 11.2521 11.3477 10.7677 11.4883 10.2365C11.6341 9.70522 11.6341 9.17397 11.4883 8.64272C11.3424 8.11147 11.0482 7.62449 10.6055 7.18179C10.3711 6.9422 10.0846 6.74949 9.74609 6.60366C9.40755 6.45783 9.00391 6.36408 8.53516 6.32241L9.72266 5.11929ZM9.02734 11.7052C8.57422 11.6219 8.1862 11.4969 7.86328 11.3302C7.54557 11.1636 7.27474 10.9656 7.05078 10.7365C6.39974 10.0906 5.96745 9.3797 5.75391 8.60366C5.54036 7.82762 5.54036 7.05418 5.75391 6.28335C5.97266 5.50731 6.40234 4.79897 7.04297 4.15835L9.74609 1.44741C10.3867 0.806786 11.0924 0.379703 11.8633 0.166161C12.6393 -0.0525888 13.4154 -0.0551929 14.1914 0.158349C14.9674 0.37189 15.681 0.804182 16.332 1.45522C16.9727 2.09585 17.3997 2.80418 17.6133 3.58022C17.832 4.35627 17.832 5.13231 17.6133 5.90835C17.3997 6.68439 16.9753 7.39012 16.3398 8.02554L14.0977 10.2599C14.1654 9.95783 14.181 9.64272 14.1445 9.3146C14.1081 8.98127 14.0273 8.67137 13.9023 8.38491L15.2383 7.04897C15.6758 6.61147 15.9674 6.1297 16.1133 5.60366C16.2643 5.07241 16.2643 4.54116 16.1133 4.00991C15.9674 3.47345 15.6758 2.98647 15.2383 2.54897C14.7904 2.10106 14.3008 1.80679 13.7695 1.66616C13.2435 1.52033 12.7148 1.52033 12.1836 1.66616C11.6576 1.81199 11.1706 2.10627 10.7227 2.54897L8.13672 5.13491C7.69401 5.57241 7.39974 6.05679 7.25391 6.58804C7.10807 7.11929 7.10807 7.65054 7.25391 8.18179C7.39974 8.71304 7.69661 9.20262 8.14453 9.65054C8.38411 9.88491 8.67057 10.075 9.00391 10.2208C9.34245 10.3667 9.74609 10.463 10.2148 10.5099L9.02734 11.7052Z" fill="#0096F7" />
</svg>
