
<svg width="19" height="14" viewBox="0 0 19 14" fill="none" xmlns="http://www.w3.org/2000/svg">
<path d="M3.23438 13.4611C2.41667 13.4611 1.80208 13.2579 1.39062 12.8517C0.984375 12.4506 0.78125 11.8465 0.78125 11.0392V2.41418C0.78125 1.6121 0.973958 1.01054 1.35938 0.609497C1.75 0.203247 2.29688 0.00012207 3 0.00012207H15.5781C16.3958 0.00012207 17.0078 0.203247 17.4141 0.609497C17.8255 1.01054 18.0312 1.6121 18.0312 2.41418V11.0392C18.0312 11.8465 17.8359 12.4506 17.4453 12.8517C17.0599 13.2579 16.5156 13.4611 15.8125 13.4611H3.23438ZM3.1875 12.2657H15.625C16.0104 12.2657 16.3073 12.1642 16.5156 11.9611C16.7292 11.7527 16.8359 11.448 16.8359 11.047V2.422C16.8359 2.01575 16.7292 1.71106 16.5156 1.50793C16.3073 1.2996 16.0104 1.19543 15.625 1.19543H3.1875C2.79688 1.19543 2.4974 1.2996 2.28906 1.50793C2.08073 1.71106 1.97656 2.01314 1.97656 2.41418V11.0392C1.97656 11.4454 2.08073 11.7527 2.28906 11.9611C2.4974 12.1642 2.79688 12.2657 3.1875 12.2657ZM9.42188 8.81262C9.14583 8.81262 8.8724 8.75273 8.60156 8.63293C8.33594 8.51314 8.06771 8.31783 7.79688 8.047L1.41406 1.78137L2.23438 0.96106L8.47656 7.12512C8.64323 7.28658 8.80208 7.40898 8.95312 7.49231C9.10938 7.57043 9.26562 7.6095 9.42188 7.6095C9.57292 7.6095 9.72396 7.57043 9.875 7.49231C10.0312 7.41418 10.1953 7.29179 10.3672 7.12512L16.5781 0.99231L17.3906 1.81262L11.0469 8.047C10.7708 8.31783 10.5 8.51314 10.2344 8.63293C9.96875 8.75273 9.69792 8.81262 9.42188 8.81262ZM16.5 12.4376L11.4453 7.43762L12.2578 6.62512L17.3125 11.6173L16.5 12.4376ZM1.52344 11.6251L6.57812 6.62512L7.39844 7.43762L2.33594 12.4454L1.52344 11.6251Z" fill="#0096F7"/>
</svg>
