

<svg width="288" height="39" viewBox="0 0 288 39" fill="none" xmlns="http://www.w3.org/2000/svg">
<g clip-path="url(#clip0_7204_5339)">
<path d="M14.821 14.8134V14.731C15.1466 14.6115 18.4356 12.5395 18.4356 8.35828C18.4356 3.85577 14.6191 0.811523 10.4357 0.811523H0V30.0305H10.7613C15.229 30.0305 19.33 26.6608 19.33 21.9152C19.33 17.1697 15.5959 15.0564 14.8251 14.8134H14.821ZM3.49093 3.97523H9.98646C12.7891 3.97523 14.7757 5.9649 14.7757 8.60132C14.7757 11.2377 13.1106 13.2274 9.98646 13.2274H3.49093V3.97523ZM10.1884 26.8626H3.49093V16.3128H10.1884C13.8442 16.3128 15.67 18.7062 15.67 21.5898C15.67 24.4734 13.8442 26.8668 10.1884 26.8668V26.8626Z" fill="black"/>
<path d="M42.872 8.92675H39.6242V12.1728H39.5418C37.8355 9.73828 35.1153 8.51893 32.3538 8.51893C26.5466 8.51893 22.5693 12.902 22.5693 19.4766C22.5693 26.0511 26.5466 30.4342 32.3538 30.4342C35.1153 30.4342 37.8767 29.4208 39.583 26.9862H39.6654C39.6654 27.8801 39.7479 29.2189 39.8674 30.0305H43.0327C42.9091 29.3013 42.872 27.8389 42.872 26.4589V8.92675ZM32.8443 27.3487C28.867 27.3487 25.982 23.9791 25.982 19.4766C25.982 14.974 28.8629 11.6044 32.8443 11.6044C36.8257 11.6044 39.7066 14.974 39.7066 19.4766C39.7066 23.9791 36.8257 27.3487 32.8443 27.3487Z" fill="black"/>
<path d="M57.6515 11.5261C60.3305 11.5261 62.6839 12.9885 63.5783 16.1522L66.9868 15.6661C65.6473 10.797 62.1152 8.52305 57.6474 8.52305C51.3538 8.52305 47.4961 13.3098 47.4961 19.4807C47.4961 25.6515 51.3538 30.4383 57.6474 30.4383C62.1152 30.4383 65.6473 28.1644 66.9868 23.2952L63.5783 22.8092C62.6839 25.9729 60.3305 27.4352 57.6515 27.4352C53.3899 27.4352 50.9128 23.9461 50.9128 19.4807C50.9128 15.0152 53.3899 11.5261 57.6515 11.5261Z" fill="black"/>
<path d="M88.1431 8.92675H83.4322L74.7853 17.8576H74.7028V0H71.4551V30.0305H74.7028V19.802H74.7853L84.0422 30.0305H88.8314L78.1526 18.7474L88.1431 8.92675Z" fill="black"/>
<path d="M100.038 26.3766H99.9556L93.5384 8.92675H89.6436L98.0886 30.0305L94.474 38.1457H98.4925L110.35 8.92675H106.612L100.038 26.3766Z" fill="black"/>
<path d="M132.681 8.92675H129.433V12.1728H129.35C127.644 9.73828 124.924 8.51893 122.162 8.51893C116.355 8.51893 112.378 12.902 112.378 19.4766C112.378 26.0511 116.355 30.4342 122.162 30.4342C124.924 30.4342 127.685 29.4208 129.392 26.9862H129.474C129.474 27.8801 129.556 29.2189 129.676 30.0305H132.841C132.718 29.3013 132.681 27.8389 132.681 26.4589V8.92675ZM122.653 27.3487C118.676 27.3487 115.791 23.9791 115.791 19.4766C115.791 14.974 118.676 11.6044 122.653 11.6044C126.63 11.6044 129.515 14.974 129.515 19.4766C129.515 23.9791 126.634 27.3487 122.653 27.3487Z" fill="black"/>
<path d="M141.851 11.9298H141.768V8.92675H138.521V30.0305H141.768V18.1007C141.768 14.2861 143.433 11.8515 147.654 11.8515C148.062 11.8515 148.507 11.8927 148.911 11.9751V8.81141C148.507 8.72902 148.017 8.69195 147.489 8.69195C144.971 8.69195 142.778 9.91129 141.847 11.938L141.851 11.9298Z" fill="black"/>
<path d="M168.649 12.1728H168.566C166.86 9.73827 164.222 8.51893 161.461 8.51893C155.654 8.51893 151.759 12.902 151.759 19.4765C151.759 26.0511 155.658 30.4342 161.461 30.4342C164.222 30.4342 166.86 29.2148 168.566 26.7803H168.649V30.0263H171.897V0H168.649V12.1728ZM161.951 27.3487C157.892 27.3487 155.171 24.185 155.171 19.4765C155.171 14.7681 157.892 11.6044 161.951 11.6044C166.456 11.6044 168.731 15.2583 168.731 19.4765C168.731 23.6948 166.456 27.3487 161.951 27.3487Z" fill="black"/>
<path d="M204.663 20.0244H204.621L199.09 7.38197H197.194V22.2324H198.967V11.1553H199.008L203.859 22.2324H205.409L210.276 11.1553H210.317V22.2324H212.094V7.38197H210.194L204.663 20.0244Z" fill="black"/>
<path d="M221.895 17.6105C221.895 19.4477 220.7 20.8689 218.944 20.8689C217.44 20.8689 216.529 19.9008 216.529 17.9606V11.5055H214.876V18.0636C214.876 20.7041 216.195 22.4384 218.651 22.4384C219.723 22.4384 221.005 21.9647 221.85 20.8277H221.891V22.2283H223.544V11.5014H221.891V17.6063L221.895 17.6105Z" fill="black"/>
<path d="M228.085 6.97004H226.433V22.2324H228.085V6.97004Z" fill="black"/>
<path d="M234.07 7.8969L232.417 8.51481V11.5055H229.94V12.9926H232.417V18.7268C232.417 21.4909 233.926 22.3148 235.884 22.3148C236.316 22.3148 236.749 22.2324 237.058 22.1088V20.5394C236.77 20.6629 236.378 20.7453 236.049 20.7453C234.936 20.7453 234.066 20.4364 234.066 18.8463V12.9885H237.058V11.5014H234.066V7.89278L234.07 7.8969Z" fill="black"/>
<path d="M240.153 7.176C239.453 7.176 238.917 7.73212 238.917 8.41182C238.917 9.09153 239.453 9.64764 240.153 9.64764C240.854 9.64764 241.39 9.11212 241.39 8.41182C241.39 7.71153 240.854 7.176 240.153 7.176Z" fill="black"/>
<path d="M240.982 11.5055H239.329V22.2324H240.982V11.5055Z" fill="black"/>
<path d="M250.989 17.6105C250.989 19.4477 249.793 20.8689 248.038 20.8689C246.533 20.8689 245.622 19.9008 245.622 17.9606V11.5055H243.97V18.0636C243.97 20.7041 245.289 22.4384 247.745 22.4384C248.817 22.4384 250.098 21.9647 250.943 20.8277H250.985V22.2283H252.637V11.5014H250.985V17.6063L250.989 17.6105Z" fill="black"/>
<path d="M260.625 11.2995C259.553 11.2995 258.065 11.8145 257.22 12.9102H257.179V11.5055H255.526V22.2324H257.179V16.1275C257.179 14.2902 258.395 12.869 260.254 12.869C261.742 12.869 262.751 13.6517 262.751 16.0657V22.2324H264.404V15.6743C264.404 12.8072 262.854 11.3036 260.629 11.3036L260.625 11.2995Z" fill="black"/>
<path d="M268.217 7.176C267.516 7.176 266.98 7.73212 266.98 8.41182C266.98 9.09153 267.516 9.64764 268.217 9.64764C268.918 9.64764 269.453 9.11212 269.453 8.41182C269.453 7.71153 268.918 7.176 268.217 7.176Z" fill="black"/>
<path d="M269.045 11.5055H267.393V22.2324H269.045V11.5055Z" fill="black"/>
<path d="M275.235 7.8969L273.582 8.51481V11.5055H271.105V12.9926H273.582V18.7268C273.582 21.4909 275.091 22.3148 277.049 22.3148C277.481 22.3148 277.914 22.2324 278.223 22.1088V20.5394C277.935 20.6629 277.543 20.7453 277.214 20.7453C276.101 20.7453 275.231 20.4364 275.231 18.8463V12.9885H278.223V11.5014H275.231V7.89278L275.235 7.8969Z" fill="black"/>
<path d="M282.242 0.811523H192.949C189.776 0.811523 187.191 3.39439 187.191 6.56633V24.2798C187.191 27.4517 189.776 30.0346 192.949 30.0346H282.242C285.416 30.0346 288 27.4558 288 24.2798V6.56633C288 3.39439 285.42 0.811523 282.242 0.811523ZM286.743 24.2757C286.743 26.7555 284.723 28.774 282.242 28.774H192.949C190.468 28.774 188.448 26.7555 188.448 24.2757V6.56633C188.448 4.08645 190.468 2.06794 192.949 2.06794H282.242C284.723 2.06794 286.743 4.08645 286.743 6.56633V24.2798V24.2757Z" fill="black"/>
</g>
<defs>
<clipPath id="clip0_7204_5339">
<rect width="288" height="38.1457" fill="white"/>
</clipPath>
</defs>
</svg>
